<svg width="197" height="59" viewBox="0 0 197 59" fill="none" xmlns="http://www.w3.org/2000/svg">
<path d="M99.385 7.727C99.385 6.426 99.115 5.274 98.551 4.195C98.379 3.875 98.183 3.532 97.938 3.213C97.692 2.895 97.422 2.551 97.103 2.256C95.607 0.737 93.792 0 91.658 0C89.524 0 87.685 0.737 86.189 2.256C85.869 2.551 85.6 2.895 85.355 3.213C85.134 3.532 84.913 3.875 84.741 4.195C84.202 5.274 83.932 6.426 83.932 7.727C83.932 9.861 84.667 11.676 86.189 13.172C87.685 14.693 89.524 15.453 91.658 15.453C93.792 15.453 95.607 14.693 97.103 13.172C98.624 11.676 99.385 9.861 99.385 7.727Z" fill="#004B87"/>
<path d="M105.878 27.306V19.112H85.501V58.158H97.685V27.306H105.878Z" fill="#004B87"/>
<path d="M0 6.359V15.977L12.932 15.906C14.393 15.763 15.817 15.728 17.278 15.763C18.347 15.834 19.416 15.942 20.52 16.048C20.52 16.048 20.556 16.048 20.591 16.048V16.084C20.876 16.119 21.161 16.156 21.446 16.191C23.049 16.405 24.368 17.01 25.437 18.008C25.757 18.471 26.006 18.969 26.22 19.468C27.609 22.496 27.182 25.24 24.938 27.698C24.866 27.84 24.759 27.948 24.617 28.054C24.225 28.339 23.797 28.588 23.334 28.766C19.986 29.871 16.495 30.227 12.932 29.835V22.924L0 22.995V58.158H12.932V39.169H17.599L32.063 58.158C42.679 58.158 53.295 58.158 63.947 58.158V49.963L41.325 49.857L30.495 36.141C31.564 35.607 32.597 34.965 33.594 34.288C35.483 32.935 37.015 31.26 38.155 29.23C40.435 25.168 40.897 20.893 39.544 16.405C39.259 15.514 38.867 14.658 38.368 13.875C35.875 9.885 32.241 7.533 27.502 6.75C25.294 6.394 23.085 6.216 20.841 6.216C13.894 6.323 6.947 6.359 0 6.359Z" fill="#004B87"/>
<path d="M43.178 29.372C43.534 29.301 43.855 29.23 44.14 29.122C48.272 27.377 52.547 26.558 56.965 26.629C58.354 26.807 59.708 27.092 61.026 27.52C62.451 27.948 63.805 29.336 65.087 31.617V58.158H84.325V49.999H76.487C76.487 46.935 76.487 43.871 76.487 40.808C76.452 37.708 76.487 34.645 76.559 31.581C76.63 28.125 75.49 25.133 73.139 22.639C71.606 21 69.754 19.931 67.581 19.397C59.387 17.438 51.265 17.616 43.178 19.931V29.372Z" fill="#004B87"/>
<path d="M119.167 19.112H107.019V58.158H119.167V30.477C121.375 28.802 123.798 28.09 126.505 28.339C129.284 28.659 130.745 30.298 130.923 33.184C131.208 38.493 131.35 43.8 131.422 49.109H143.605C143.57 45.795 143.57 42.447 143.534 39.098C143.534 36.141 143.463 33.149 143.356 30.192C143.32 28.696 143.035 27.235 142.572 25.774C141.325 22.034 138.831 19.647 135.019 18.649C130.353 17.509 126.078 18.328 122.159 21.178L119.167 23.422V19.112Z" fill="#004B87"/>
<path d="M196.402 6.39398H181.974L172.391 21.997L163.057 6.39398H148.023L164.161 32.079L152.405 50.356H131.422C131.422 52.956 131.422 55.557 131.35 58.158H136.124V58.229H152.512V58.193H161.739L171.892 41.662L181.867 58.193H196.972L180.157 31.581L196.402 6.39398Z" fill="#004B87"/>
</svg>
