<svg width="22" height="59" viewBox="0 0 22 59" fill="none" xmlns="http://www.w3.org/2000/svg">
<path d="M15.453 7.885C15.453 6.584 15.183 5.432 14.619 4.353C14.447 4.033 14.251 3.69 14.006 3.371C13.76 3.053 13.49 2.709 13.171 2.414C11.675 0.895005 9.86 0.158005 7.726 0.158005C5.592 0.158005 3.753 0.895005 2.257 2.414C1.937 2.709 1.668 3.053 1.423 3.371C1.202 3.69 0.980998 4.033 0.808998 4.353C0.269998 5.432 0 6.584 0 7.885C0 10.019 0.735004 11.834 2.257 13.33C3.753 14.851 5.592 15.611 7.726 15.611C9.86 15.611 11.675 14.851 13.171 13.33C14.692 11.834 15.453 10.019 15.453 7.885Z" fill="#A19F9D"/>
<path d="M21.946 27.464V19.27H1.569V58.316H13.753V27.464H21.946Z" fill="#FEF9F3"/>
</svg>
