<svg width="100" height="101" viewBox="0 0 100 101" fill="none" xmlns="http://www.w3.org/2000/svg">
<rect y="0.158005" width="100" height="100" rx="50" fill="black"/>
<path d="M54.453 28.885C54.453 27.584 54.183 26.432 53.619 25.353C53.447 25.033 53.251 24.69 53.006 24.371C52.76 24.053 52.49 23.709 52.171 23.414C50.675 21.895 48.86 21.158 46.726 21.158C44.592 21.158 42.753 21.895 41.257 23.414C40.937 23.709 40.668 24.053 40.423 24.371C40.202 24.69 39.981 25.033 39.809 25.353C39.27 26.432 39 27.584 39 28.885C39 31.019 39.735 32.834 41.257 34.33C42.753 35.851 44.592 36.611 46.726 36.611C48.86 36.611 50.675 35.851 52.171 34.33C53.692 32.834 54.453 31.019 54.453 28.885Z" fill="#A19F9D"/>
<path d="M60.946 48.464V40.27H40.569V79.316H52.753V48.464H60.946Z" fill="#FEF9F3"/>
</svg>
