<svg width="22" height="59" viewBox="0 0 22 59" fill="none" xmlns="http://www.w3.org/2000/svg">
<path d="M15.453 7.727C15.453 6.426 15.183 5.274 14.619 4.195C14.447 3.875 14.251 3.532 14.006 3.213C13.76 2.895 13.49 2.551 13.171 2.256C11.675 0.737 9.86 0 7.726 0C5.592 0 3.753 0.737 2.257 2.256C1.937 2.551 1.668 2.895 1.423 3.213C1.202 3.532 0.980998 3.875 0.808998 4.195C0.269998 5.274 0 6.426 0 7.727C0 9.861 0.735004 11.676 2.257 13.172C3.753 14.693 5.592 15.453 7.726 15.453C9.86 15.453 11.675 14.693 13.171 13.172C14.692 11.676 15.453 9.861 15.453 7.727Z" fill="#004E8C"/>
<path d="M21.946 27.306V19.112H1.569V58.158H13.753V27.306H21.946Z" fill="#52504E"/>
</svg>
