<svg width="100" height="100" viewBox="0 0 100 100" fill="none" xmlns="http://www.w3.org/2000/svg">
<rect width="100" height="100" rx="50" fill="#D9D9D9"/>
<path d="M54.453 28.727C54.453 27.426 54.183 26.274 53.619 25.195C53.447 24.875 53.251 24.532 53.006 24.213C52.76 23.895 52.49 23.551 52.171 23.256C50.675 21.737 48.86 21 46.726 21C44.592 21 42.753 21.737 41.257 23.256C40.937 23.551 40.668 23.895 40.423 24.213C40.202 24.532 39.981 24.875 39.809 25.195C39.27 26.274 39 27.426 39 28.727C39 30.861 39.735 32.676 41.257 34.172C42.753 35.693 44.592 36.453 46.726 36.453C48.86 36.453 50.675 35.693 52.171 34.172C53.692 32.676 54.453 30.861 54.453 28.727Z" fill="#004E8C"/>
<path d="M60.946 48.306V40.112H40.569V79.158H52.753V48.306H60.946Z" fill="#52504E"/>
</svg>
